<mxfile host="app.diagrams.net" modified="2023-11-17T19:16:58.056Z" agent="Mozilla/5.0 (Macintosh; Intel Mac OS X 10_15_7) AppleWebKit/605.1.15 (KHTML, like Gecko) Version/16.6 Safari/605.1.15" etag="T3v6IY6s9JmEv8jSK5vy" version="22.1.0" type="github" pages="4">
  <diagram name="EntireArchitecture" id="buUF_mcZnvH-J1s2lz6n">
    <mxGraphModel dx="954" dy="647" grid="1" gridSize="10" guides="1" tooltips="1" connect="1" arrows="1" fold="1" page="1" pageScale="1" pageWidth="1100" pageHeight="850" math="0" shadow="0">
      <root>
        <mxCell id="0" />
        <mxCell id="1" parent="0" />
        <mxCell id="Tj8ga9hi2O6zs3XrY8uc-7" value="users" style="sketch=0;outlineConnect=0;gradientColor=none;fontColor=#545B64;strokeColor=none;fillColor=#879196;dashed=0;verticalLabelPosition=bottom;verticalAlign=top;align=center;html=1;fontSize=12;fontStyle=0;aspect=fixed;shape=mxgraph.aws4.illustration_users;pointerEvents=1" parent="1" vertex="1">
          <mxGeometry x="980" y="300" width="60" height="60" as="geometry" />
        </mxCell>
        <mxCell id="Tj8ga9hi2O6zs3XrY8uc-8" value="AWS Cloud" style="points=[[0,0],[0.25,0],[0.5,0],[0.75,0],[1,0],[1,0.25],[1,0.5],[1,0.75],[1,1],[0.75,1],[0.5,1],[0.25,1],[0,1],[0,0.75],[0,0.5],[0,0.25]];outlineConnect=0;gradientColor=none;html=1;whiteSpace=wrap;fontSize=12;fontStyle=0;container=1;pointerEvents=0;collapsible=0;recursiveResize=0;shape=mxgraph.aws4.group;grIcon=mxgraph.aws4.group_aws_cloud_alt;strokeColor=#232F3E;fillColor=none;verticalAlign=top;align=left;spacingLeft=30;fontColor=#232F3E;dashed=0;flipH=0;flipV=0;" parent="1" vertex="1">
          <mxGeometry x="220" y="75" width="650" height="695" as="geometry" />
        </mxCell>
        <mxCell id="Tj8ga9hi2O6zs3XrY8uc-1" value="API Gateway" style="sketch=0;points=[[0,0,0],[0.25,0,0],[0.5,0,0],[0.75,0,0],[1,0,0],[0,1,0],[0.25,1,0],[0.5,1,0],[0.75,1,0],[1,1,0],[0,0.25,0],[0,0.5,0],[0,0.75,0],[1,0.25,0],[1,0.5,0],[1,0.75,0]];outlineConnect=0;fontColor=#232F3E;fillColor=#E7157B;strokeColor=#ffffff;dashed=0;verticalLabelPosition=bottom;verticalAlign=top;align=center;html=1;fontSize=12;fontStyle=0;aspect=fixed;shape=mxgraph.aws4.resourceIcon;resIcon=mxgraph.aws4.api_gateway;" parent="Tj8ga9hi2O6zs3XrY8uc-8" vertex="1">
          <mxGeometry x="120" y="185" width="78" height="78" as="geometry" />
        </mxCell>
        <mxCell id="Tj8ga9hi2O6zs3XrY8uc-2" value="Cloud Front&lt;br&gt;" style="sketch=0;points=[[0,0,0],[0.25,0,0],[0.5,0,0],[0.75,0,0],[1,0,0],[0,1,0],[0.25,1,0],[0.5,1,0],[0.75,1,0],[1,1,0],[0,0.25,0],[0,0.5,0],[0,0.75,0],[1,0.25,0],[1,0.5,0],[1,0.75,0]];outlineConnect=0;fontColor=#232F3E;fillColor=#8C4FFF;strokeColor=#ffffff;dashed=0;verticalLabelPosition=bottom;verticalAlign=top;align=center;html=1;fontSize=12;fontStyle=0;aspect=fixed;shape=mxgraph.aws4.resourceIcon;resIcon=mxgraph.aws4.cloudfront;" parent="Tj8ga9hi2O6zs3XrY8uc-8" vertex="1">
          <mxGeometry x="260" y="185" width="78" height="78" as="geometry" />
        </mxCell>
        <mxCell id="Tj8ga9hi2O6zs3XrY8uc-3" value="Lambda" style="sketch=0;points=[[0,0,0],[0.25,0,0],[0.5,0,0],[0.75,0,0],[1,0,0],[0,1,0],[0.25,1,0],[0.5,1,0],[0.75,1,0],[1,1,0],[0,0.25,0],[0,0.5,0],[0,0.75,0],[1,0.25,0],[1,0.5,0],[1,0.75,0]];outlineConnect=0;fontColor=#232F3E;fillColor=#ED7100;strokeColor=#ffffff;dashed=0;verticalLabelPosition=bottom;verticalAlign=top;align=center;html=1;fontSize=12;fontStyle=0;aspect=fixed;shape=mxgraph.aws4.resourceIcon;resIcon=mxgraph.aws4.lambda;" parent="Tj8ga9hi2O6zs3XrY8uc-8" vertex="1">
          <mxGeometry x="420" y="185" width="78" height="78" as="geometry" />
        </mxCell>
        <mxCell id="Tj8ga9hi2O6zs3XrY8uc-4" value="Route 53" style="sketch=0;points=[[0,0,0],[0.25,0,0],[0.5,0,0],[0.75,0,0],[1,0,0],[0,1,0],[0.25,1,0],[0.5,1,0],[0.75,1,0],[1,1,0],[0,0.25,0],[0,0.5,0],[0,0.75,0],[1,0.25,0],[1,0.5,0],[1,0.75,0]];outlineConnect=0;fontColor=#232F3E;fillColor=#8C4FFF;strokeColor=#ffffff;dashed=0;verticalLabelPosition=bottom;verticalAlign=top;align=center;html=1;fontSize=12;fontStyle=0;aspect=fixed;shape=mxgraph.aws4.resourceIcon;resIcon=mxgraph.aws4.route_53;" parent="Tj8ga9hi2O6zs3XrY8uc-8" vertex="1">
          <mxGeometry x="120" y="315" width="78" height="78" as="geometry" />
        </mxCell>
        <mxCell id="Tj8ga9hi2O6zs3XrY8uc-5" value="DynamoDB&amp;nbsp;" style="sketch=0;points=[[0,0,0],[0.25,0,0],[0.5,0,0],[0.75,0,0],[1,0,0],[0,1,0],[0.25,1,0],[0.5,1,0],[0.75,1,0],[1,1,0],[0,0.25,0],[0,0.5,0],[0,0.75,0],[1,0.25,0],[1,0.5,0],[1,0.75,0]];outlineConnect=0;fontColor=#232F3E;fillColor=#C925D1;strokeColor=#ffffff;dashed=0;verticalLabelPosition=bottom;verticalAlign=top;align=center;html=1;fontSize=12;fontStyle=0;aspect=fixed;shape=mxgraph.aws4.resourceIcon;resIcon=mxgraph.aws4.dynamodb;" parent="Tj8ga9hi2O6zs3XrY8uc-8" vertex="1">
          <mxGeometry x="270" y="315" width="78" height="78" as="geometry" />
        </mxCell>
        <mxCell id="Tj8ga9hi2O6zs3XrY8uc-6" value="S3&lt;br&gt;" style="sketch=0;points=[[0,0,0],[0.25,0,0],[0.5,0,0],[0.75,0,0],[1,0,0],[0,1,0],[0.25,1,0],[0.5,1,0],[0.75,1,0],[1,1,0],[0,0.25,0],[0,0.5,0],[0,0.75,0],[1,0.25,0],[1,0.5,0],[1,0.75,0]];outlineConnect=0;fontColor=#232F3E;fillColor=#7AA116;strokeColor=#ffffff;dashed=0;verticalLabelPosition=bottom;verticalAlign=top;align=center;html=1;fontSize=12;fontStyle=0;aspect=fixed;shape=mxgraph.aws4.resourceIcon;resIcon=mxgraph.aws4.s3;" parent="Tj8ga9hi2O6zs3XrY8uc-8" vertex="1">
          <mxGeometry x="420" y="315" width="78" height="78" as="geometry" />
        </mxCell>
        <mxCell id="Tj8ga9hi2O6zs3XrY8uc-16" value="" style="whiteSpace=wrap;html=1;shadow=1;fillColor=none;" parent="Tj8ga9hi2O6zs3XrY8uc-8" vertex="1">
          <mxGeometry x="99" y="55" width="431" height="105" as="geometry" />
        </mxCell>
        <mxCell id="Tj8ga9hi2O6zs3XrY8uc-17" value="" style="whiteSpace=wrap;html=1;shadow=1;fillColor=none;" parent="Tj8ga9hi2O6zs3XrY8uc-8" vertex="1">
          <mxGeometry x="99" y="300" width="431" height="250" as="geometry" />
        </mxCell>
        <mxCell id="Tj8ga9hi2O6zs3XrY8uc-12" value="" style="dashed=0;outlineConnect=0;html=1;align=center;labelPosition=center;verticalLabelPosition=bottom;verticalAlign=top;shape=mxgraph.weblogos.github" parent="1" vertex="1">
          <mxGeometry x="30" y="90" width="75" height="75" as="geometry" />
        </mxCell>
        <mxCell id="Tj8ga9hi2O6zs3XrY8uc-13" value="" style="shape=image;verticalLabelPosition=bottom;verticalAlign=top;imageAspect=0;aspect=fixed;image=data:image/png,iVBORw0KGgoAAAANSUhEUgAAAHAAAACACAYAAADTcu1SAAAAAXNSR0IArs4c6QAADitJREFUeAHtnX1UlFUex5/7PDOAoiWnRGbo5G6FL7XV4lqnrFZAT6booOxOLyuD7FZmdbT3jlu5S55t/SM37XjWNirFGWpLVmEGNLUEcteOWcZmbyrlZh1mSDCtFAVmnrvfB7nwMIHAvD3PzNw5B+597jNz7+9+P3Nfnvs2gi3PveUPlubxAn9FpQIipXRWB+n4uGCu+28Lrd+dH5W5iGOjRSXvgGgUZPrw6bYzDTaL++7iYtoZHse6RE3We4GiAh2Nv5Iv6t37bPM8U6MmF3FsaC+A3TpQ4ZfUJ9ehNG68M989tjuce3SnQN8Au8xEabS2e+mBAot7uc3WlKw767lBwjkBKvpQQUjC/2XC976DADkf7SXhuulHAVJgaQSjIb32GAziktLNpveH9Cn+5rAoMGAJ7CPV67xe+h5KY+nC/GZTH/d5UAQVCAQgzFOqUbqg1ddxqDDPvXTxYpoYQZt5UioFAgTYFQOlI2RKVxw/4vkMIOep4uXeCCkQSBvYr2koljUSkR4sdaZ93O+b+I2QKhBcCfQzBb2hHK8g1xfkNf69cN4PF/jd5pdhUCCkADvto1TCs8d9su/HBgyUL8GwnCEMdvMouxQIPcAeaVPwzPj8l/We/QA5oyeY+0KpQDgBdtoJiBPxt81maawq+s3RjFAaz+MSBh6JCZVIaB9ne70dnxTmNT67eP6x80IVb7zHE/YS2EtgKiTIVHj0xMm2Bjx23MWnrXqpE9BFZAF2mYgqNRXPjy99We/+oCjPfVNAlvMPdSqgCUCmPaVCppfSXba8xtcLre6LWTh3B6+ALrr4AHmb0C6kwuycwZvO36kooGkJVCNAJ4dPU6kFGaRfNwD97cVqgMlYLWf2D+fXZxVAP4Lk5FTN0S1AFMcbOoTO2Y4nioooJpX5iymQk1M9JTu7ai+anjW6BagYiyUdyeitPuM77vncNs+dzzIQr+7MmVsvArgyWZZ3Q4PJig666MQMBATVxc8En7CpIM9dJ4jSg2UVYz4a6DOxdN9qfXdYS8t3j54541sKLYar86brEqg2tNNPaZYg+/ZhbPWFhXe4L/zJ/RgMQHVpbWk5doBSebk/PCW70QVQsRizHcjIotOttKHQ4n5g4UIsSo7B1/TpWzOzsqp2obrciPz2+4wcfQC7YKEBHyULdPXpJs/+wrmembHC8Oabt6einSvx+bwf4Ns64ChVVLSB54KDjs4EKtOtaB+3JFDjI+tcow+e6/16vWe1fprQ3Py/xR0d7X9CiRv0YH/UlsCfgKA0N1o36WRnV+c2Nx/+RBDklUOBp2gQOwCRGWQ+qjbpTJ9ePRHV5XZ0UKphfUBzpTEFkJVKVKu63qSTm1udglGU1Vhfux9fupuZ3YG4MQmwWwidbdKxWqmEx4J7W1vlBlmmD6DUBd0HiW2AXST1sEknJ2drTnNzdT0eC9aiBx2yFXtxAVDhiNkOTTbpoJ27BM9zm2XZuxNWXNldO4TIEzcAmV4AmQ4hywrnuncX5XuuYeGhdq3W2hEAt8Lno58hvbCtWo87gAwUqrHrw7FJB50SkpVVvaC5+eQhgFPGLsO6byRuAZ4FGdpNOtOmVV2PZ7r38DxXCngR2bkV5wC7ymOQm3TwSJCuTPP4fAKmeWjYqmVWe6hdkQjkXqxmaFEHxq+fXoL5x81YhLyzKK9pwA5HUVFtEkrcMlTHh1BVzge8iC8LER0u8z8M4rAMQSTPA6Q3fuH15BwdnQE36SjTPEeOnOx3mqcntvD6OqvQ0sqUE2WV5geJJFxFCNke3iSjJHbVJp3f57snqa1G79LVNc0zVh2uhb9XG+ioMH/ucJpvESVpDoxp0MIgHaaZ0iELvebjCBGu1oudvQAyo+wVadXD08xXCER8DNXqDyycu/pToE+AipklJaSjzGlaSSQxAx2dV1C1yvozn1vUL0AmjaMi7Sg6OncRapgsEPJvFs5dfSgwIEBmpt2VWl/mNP9aJNLtKJFfs3DuaqvAoAEyM+3OtDcuTDRNwFxwMUC2snDuaqPAkAEqZq4qJ6fLXKanDSRxAnpkr2tjOk9VUSAggEy69c4LvnE40++QDMKN6OTsY+HcjZwCQQFkZm7YnL770kzTtaIg3YnHjm9ZOHfDr0BIACpmFhcT2e5KW5cyMnEcNoo9i7/28JvPUwgZQCblmlcv+KHMmf64kGC8Au1jFQvnbngUCDlAZmZZeeoXaB8tkkhm4PkRs9L8FQ4FwgaQGbuh0rzjskzT1aIoLEHYcRbO3dAoEHaAiploH732yvQ1ojQyA23jWpRIX2jM57FEBCCT2V5x3jG0j/cbBDFTOdmQhXM3cAUiCpCZqRxH6XClTxMJwa5bcpiFc3foCmgCkJlpd5orUsaaLicieYII9EcWzt3BKxD00u7BJ9X3O9esIW24s4IfZNC3PgOFaloC1caVlpIz6mvuH5wCugHoby7Wdx3AbMcp/3B+3aMAVsN9qFuAWJuz3SgYx6GTU4Y/LBTjL6YAJg4OiyLJr6ubk69bgIqx2C7tLnOZbfihkSkwei/LQBy7J6HDE0lJ0uU1NXMqFB0078QMBkbp5rQ9WDh73YL8pkLsq1uBrbgRWbY+GNsi8x5CMa7sSEgwLt2+/RaPOk3dAlQ2ieDVXXV2+TfcZz266cd275OA+BBuhnXjiFooDf17MAz5AEpcnzWQbqvQwjzPPTjQZwUOvBupFm9teepJtI9/NBoNl2NIrrMaUd+PFT++sI2SJNpqa+dM6Q+eklfdAsRQWyJK4VLlwDvbXE+RUiLVcNZtGnMYi6zyiSRNA8iP1fei20/OiKL4jNGYMH7nztll6lqor3zpFiAzFtuj06gsr8dhPnsL8r6dwsKZi2WPNZYEU6ZIxPvRThxj4dHpkn8lJRkm1tTMfmrHjhmDeoTSPUAGAiVwskC9u1Gtlt2Vf+wiFq64t5YTn91pWjsiOTmDEHENHjuiapMOStlH+PJl4bHAum3bzK/UeRvIHzUAWUYAcn6bt+0gSuSyh6x0GAtX3BdeG3Xc4TQtMRJyNarVHep7+vSTZti1aOrU2ZNqay3vBGJj1AFUMolqdTh2By1vafMcsFk8Vv+Mr3eaPkP7OIMQyYKG8wv/+9pfkw7UFKtGjRoxrq7O8qKynihQm6ISIMssQF5MBXkjzknbVWg5msnCmetwplVdmmi+QhTEx1Gt6mSTDnmTEMOVtbWzH66szD7BbA3UjWqA3Zmm9CZKvB+gfSyxzWtK7Q6Hp7ictNtdpmeTkqVxRBTWob0J+NuujneofrRxB5F2Ltq5WbW1Mw8O9fP9vT82ACJ3aBtF/N2Nn09vwGPHI/7niL78zzHfOirT78Se8mtRGpUjiyPyArTvAe/hjAwzSt2craFONGYA9ghDz8Njx8rWJvenCyye3J7wsz4sstqH8dUbiSDdAWG/8b8fqmvELeOvBOOWGeigrCopmdwRqrjV8cQgwO7sZfgEuRrV6jYcmD6xO7TL43ClvT5sDJmAYaqnsdDqtP/9YK5R6t4xGKRfAdw9b745S+lphu0VywA7RUO1OoP6hP0Fc92r7/3diRS1kiUl5laslisWE4iySecN9b1A/AB3BKMot6KqzHrrrdz/BhLHUD8T8wDPCoJTAXE64MlTpxrwgyKLNuLUQLVQ9nLz11iEfLsoERxxTD5U3xuMH+BOYX5u2dixIyZgFKV8MJ8J1XviBOBZuZRTAvHo8YKr3VNfaPFk+4torzD/57JJpmuwWu5uQDnqf/+n18o0D3kVpXc8Bpz/UlqaHfFlIXEFsBsApVfKglyD0rjJZm36eXc4PJ2bdJzml0eNSMxAj3Vl/5t0yPuSJNyA6rIA8BrVcUTSr9v5wEiIgNKYT9p8uQD53MhEw1+VqSqWrrJJB/7H8LOxJYLg7VXlop27/+23Z21B6euer2Sfi7SLkSZ9vpTfhFB+ViBi1hGCmW6y1FGZ5tADmMHmOz6r0L7UUZZpUHkDBsn3FOU3XdfXW/QYxgH6UcFjx7Ver/xugcXtKLS2pPvd1t0lB9gnks5zRAtoW/tBDAQ8qedV4xxgnwDPBqKTk4wS+RfvCc8t53ibprc4QE3lDz5xDjB4DTWNgQPUVP7gE+cAg9dQ0xg4QE3lDz5xDjB4DTWNgQPUVP7gE+cAg9dQ0xg4QE3lDz5xDjB4DTWNgQPUVP7gE+cAg9dQ0xg4QE3lDz5xDjB4DTWNgQPUVP7gE+cAg9dQ0xg4QE3lDz5xDjB4DTWNgQPUVP7gE9ctQGNisoMfzzwwYN0CfKX8/O/48cxRDJCZzo9nZkr07eq2BPqbqz6eGUeIdO9h8H9fvF1HDUAFjHI8s6PSvGK4ZByH/Qt27GXQfHOJ1l+YqALIxCrZPNqDA+8WYFOlsodhDwuPRzcqATJQ9krTXoCcApA2bLPSbI8es0cLN6oBKoIpW8HsleYy4XxpPPzPAGTEd8lqAY6lGfUAWUYcjrRTKI1PSaI4ESA3sfBYd2MGIANVWmn6CiB/axDFbJTGj1h4rLoxB5CBAsi6SyeZJ+HAgkWoaFtYeKy5MQtQAdV1YMGLBnFYBn6DYjWq1rCclqTllyKmATJhSytTTjhc5ofwY81XAeQ2Fh4LblwAZKBKN5kPAORMSRBn42yXQyw8mt24AshAbXCZtgwbY/6FKJBH8BzyPQuPRjcuASqgSkpIh91lfs6YQHDONnkJf5qcIxrslyZuATLh1pebmvHYsZBQw2SUxl0sPFrcuAfIQNldqfU4Z3sqBgJuA8gjLFzvLgfoR2hDpWnj6AQTRnPEP6PH2up3W3eXHGAfSFaVk9P4+YLliYZEZXz1NZHgnEP+il4F/M8X1VNO/g8k+slcMVd8QwAAAABJRU5ErkJggg==" parent="1" vertex="1">
          <mxGeometry x="90" y="284.5" width="79.63" height="91" as="geometry" />
        </mxCell>
      </root>
    </mxGraphModel>
  </diagram>
  <diagram name="WebS3" id="evnoT-ALGCR27rPG1xG3">
    <mxGraphModel dx="940" dy="633" grid="1" gridSize="10" guides="1" tooltips="1" connect="1" arrows="1" fold="1" page="1" pageScale="1" pageWidth="1100" pageHeight="850" math="0" shadow="0">
      <root>
        <mxCell id="F6EOvzX-w0oiZiTg5eTt-0" />
        <mxCell id="F6EOvzX-w0oiZiTg5eTt-1" parent="F6EOvzX-w0oiZiTg5eTt-0" />
        <mxCell id="F6EOvzX-w0oiZiTg5eTt-11" value="" style="whiteSpace=wrap;html=1;shadow=1;fillColor=none;" parent="F6EOvzX-w0oiZiTg5eTt-1" vertex="1">
          <mxGeometry x="770" y="190" width="510" height="410" as="geometry" />
        </mxCell>
        <mxCell id="F6EOvzX-w0oiZiTg5eTt-5" value="Cloud Front&lt;br&gt;" style="sketch=0;points=[[0,0,0],[0.25,0,0],[0.5,0,0],[0.75,0,0],[1,0,0],[0,1,0],[0.25,1,0],[0.5,1,0],[0.75,1,0],[1,1,0],[0,0.25,0],[0,0.5,0],[0,0.75,0],[1,0.25,0],[1,0.5,0],[1,0.75,0]];outlineConnect=0;fontColor=#232F3E;fillColor=#8C4FFF;strokeColor=#ffffff;dashed=0;verticalLabelPosition=bottom;verticalAlign=top;align=center;html=1;fontSize=12;fontStyle=0;aspect=fixed;shape=mxgraph.aws4.resourceIcon;resIcon=mxgraph.aws4.cloudfront;" parent="F6EOvzX-w0oiZiTg5eTt-1" vertex="1">
          <mxGeometry x="980" y="282" width="78" height="78" as="geometry" />
        </mxCell>
        <mxCell id="F6EOvzX-w0oiZiTg5eTt-7" value="Route 53" style="sketch=0;points=[[0,0,0],[0.25,0,0],[0.5,0,0],[0.75,0,0],[1,0,0],[0,1,0],[0.25,1,0],[0.5,1,0],[0.75,1,0],[1,1,0],[0,0.25,0],[0,0.5,0],[0,0.75,0],[1,0.25,0],[1,0.5,0],[1,0.75,0]];outlineConnect=0;fontColor=#232F3E;fillColor=#8C4FFF;strokeColor=#ffffff;dashed=0;verticalLabelPosition=bottom;verticalAlign=top;align=center;html=1;fontSize=12;fontStyle=0;aspect=fixed;shape=mxgraph.aws4.resourceIcon;resIcon=mxgraph.aws4.route_53;" parent="F6EOvzX-w0oiZiTg5eTt-1" vertex="1">
          <mxGeometry x="830" y="282" width="78" height="78" as="geometry" />
        </mxCell>
        <mxCell id="F6EOvzX-w0oiZiTg5eTt-9" value="S3&lt;br&gt;" style="sketch=0;points=[[0,0,0],[0.25,0,0],[0.5,0,0],[0.75,0,0],[1,0,0],[0,1,0],[0.25,1,0],[0.5,1,0],[0.75,1,0],[1,1,0],[0,0.25,0],[0,0.5,0],[0,0.75,0],[1,0.25,0],[1,0.5,0],[1,0.75,0]];outlineConnect=0;fontColor=#232F3E;fillColor=#7AA116;strokeColor=#ffffff;dashed=0;verticalLabelPosition=bottom;verticalAlign=top;align=center;html=1;fontSize=12;fontStyle=0;aspect=fixed;shape=mxgraph.aws4.resourceIcon;resIcon=mxgraph.aws4.s3;" parent="F6EOvzX-w0oiZiTg5eTt-1" vertex="1">
          <mxGeometry x="1133" y="282" width="78" height="78" as="geometry" />
        </mxCell>
        <mxCell id="_QaPf_ceeScysBIV_AAY-1" value="Bucket&amp;nbsp;Static &lt;br&gt;Website Hosting&lt;br&gt;briankissler/resume&amp;nbsp;" style="sketch=0;outlineConnect=0;fontColor=#232F3E;gradientColor=none;fillColor=#7AA116;strokeColor=none;dashed=0;verticalLabelPosition=bottom;verticalAlign=top;align=center;html=1;fontSize=12;fontStyle=0;aspect=fixed;pointerEvents=1;shape=mxgraph.aws4.bucket;" parent="F6EOvzX-w0oiZiTg5eTt-1" vertex="1">
          <mxGeometry x="1134.5" y="425" width="75" height="78" as="geometry" />
        </mxCell>
        <mxCell id="_QaPf_ceeScysBIV_AAY-3" value="PorkBun&lt;br&gt;www.briankissler.com" style="sketch=0;pointerEvents=1;shadow=0;dashed=0;html=1;strokeColor=none;fillColor=#505050;labelPosition=center;verticalLabelPosition=bottom;verticalAlign=top;outlineConnect=0;align=center;shape=mxgraph.office.services.registrar_service;" parent="F6EOvzX-w0oiZiTg5eTt-1" vertex="1">
          <mxGeometry x="661.8" y="295" width="56" height="52" as="geometry" />
        </mxCell>
        <mxCell id="_QaPf_ceeScysBIV_AAY-4" value="" style="image;aspect=fixed;perimeter=ellipsePerimeter;html=1;align=center;shadow=0;dashed=0;spacingTop=3;image=img/lib/active_directory/users.svg;" parent="F6EOvzX-w0oiZiTg5eTt-1" vertex="1">
          <mxGeometry x="666.6999999999999" y="460" width="46.2" height="70" as="geometry" />
        </mxCell>
        <mxCell id="_QaPf_ceeScysBIV_AAY-5" value="" style="edgeStyle=orthogonalEdgeStyle;html=1;endArrow=block;elbow=vertical;startArrow=none;endFill=1;strokeColor=#545B64;rounded=0;" parent="F6EOvzX-w0oiZiTg5eTt-1" source="_QaPf_ceeScysBIV_AAY-4" target="_QaPf_ceeScysBIV_AAY-3" edge="1">
          <mxGeometry width="100" relative="1" as="geometry">
            <mxPoint x="670" y="350" as="sourcePoint" />
            <mxPoint x="770" y="350" as="targetPoint" />
          </mxGeometry>
        </mxCell>
        <mxCell id="_QaPf_ceeScysBIV_AAY-6" style="edgeStyle=orthogonalEdgeStyle;rounded=0;orthogonalLoop=1;jettySize=auto;html=1;exitX=1;exitY=0.25;exitDx=0;exitDy=0;entryX=1;entryY=0.5;entryDx=0;entryDy=0;" parent="F6EOvzX-w0oiZiTg5eTt-1" source="_QaPf_ceeScysBIV_AAY-4" target="_QaPf_ceeScysBIV_AAY-4" edge="1">
          <mxGeometry relative="1" as="geometry" />
        </mxCell>
        <mxCell id="_QaPf_ceeScysBIV_AAY-7" value="" style="edgeStyle=orthogonalEdgeStyle;html=1;endArrow=block;elbow=vertical;startArrow=none;endFill=1;strokeColor=#545B64;rounded=0;" parent="F6EOvzX-w0oiZiTg5eTt-1" source="_QaPf_ceeScysBIV_AAY-3" target="F6EOvzX-w0oiZiTg5eTt-7" edge="1">
          <mxGeometry width="100" relative="1" as="geometry">
            <mxPoint x="730" y="240" as="sourcePoint" />
            <mxPoint x="830" y="240" as="targetPoint" />
          </mxGeometry>
        </mxCell>
        <mxCell id="_QaPf_ceeScysBIV_AAY-9" value="" style="edgeStyle=orthogonalEdgeStyle;html=1;endArrow=block;elbow=vertical;startArrow=none;endFill=1;strokeColor=#545B64;rounded=0;" parent="F6EOvzX-w0oiZiTg5eTt-1" source="F6EOvzX-w0oiZiTg5eTt-5" target="F6EOvzX-w0oiZiTg5eTt-9" edge="1">
          <mxGeometry width="100" relative="1" as="geometry">
            <mxPoint x="1090" y="330" as="sourcePoint" />
            <mxPoint x="1190" y="330" as="targetPoint" />
          </mxGeometry>
        </mxCell>
        <mxCell id="_QaPf_ceeScysBIV_AAY-10" value="" style="edgeStyle=orthogonalEdgeStyle;html=1;endArrow=block;elbow=vertical;startArrow=none;endFill=1;strokeColor=#545B64;rounded=0;" parent="F6EOvzX-w0oiZiTg5eTt-1" source="F6EOvzX-w0oiZiTg5eTt-7" target="F6EOvzX-w0oiZiTg5eTt-5" edge="1">
          <mxGeometry width="100" relative="1" as="geometry">
            <mxPoint x="900" y="240" as="sourcePoint" />
            <mxPoint x="1000" y="240" as="targetPoint" />
          </mxGeometry>
        </mxCell>
        <mxCell id="_QaPf_ceeScysBIV_AAY-12" value="" style="edgeStyle=orthogonalEdgeStyle;html=1;endArrow=block;elbow=vertical;startArrow=none;endFill=1;strokeColor=#545B64;rounded=0;exitX=0.5;exitY=1;exitDx=0;exitDy=0;exitPerimeter=0;" parent="F6EOvzX-w0oiZiTg5eTt-1" source="F6EOvzX-w0oiZiTg5eTt-9" target="_QaPf_ceeScysBIV_AAY-1" edge="1">
          <mxGeometry width="100" relative="1" as="geometry">
            <mxPoint x="1140" y="330" as="sourcePoint" />
            <mxPoint x="1240" y="330" as="targetPoint" />
          </mxGeometry>
        </mxCell>
      </root>
    </mxGraphModel>
  </diagram>
  <diagram id="6LG3VRlfiDyOUexyAGga" name="API-Lambda">
    <mxGraphModel dx="1420" dy="813" grid="1" gridSize="10" guides="1" tooltips="1" connect="1" arrows="1" fold="1" page="1" pageScale="1" pageWidth="1100" pageHeight="850" math="0" shadow="0">
      <root>
        <mxCell id="0" />
        <mxCell id="1" parent="0" />
        <mxCell id="U78lYmPO1JMrWFxDWr0I-10" value="Backend" style="swimlane;whiteSpace=wrap;html=1;" vertex="1" parent="1">
          <mxGeometry x="120" y="70" width="590" height="400" as="geometry" />
        </mxCell>
        <mxCell id="U78lYmPO1JMrWFxDWr0I-11" value="" style="swimlane;startSize=0;" vertex="1" parent="U78lYmPO1JMrWFxDWr0I-10">
          <mxGeometry x="40" y="60" width="150" height="310" as="geometry" />
        </mxCell>
        <mxCell id="JIqb_0SZRxBe-Qtd7qfQ-3" value="API Gateway" style="sketch=0;points=[[0,0,0],[0.25,0,0],[0.5,0,0],[0.75,0,0],[1,0,0],[0,1,0],[0.25,1,0],[0.5,1,0],[0.75,1,0],[1,1,0],[0,0.25,0],[0,0.5,0],[0,0.75,0],[1,0.25,0],[1,0.5,0],[1,0.75,0]];outlineConnect=0;fontColor=#232F3E;fillColor=#E7157B;strokeColor=#ffffff;dashed=0;verticalLabelPosition=bottom;verticalAlign=top;align=center;html=1;fontSize=12;fontStyle=0;aspect=fixed;shape=mxgraph.aws4.resourceIcon;resIcon=mxgraph.aws4.api_gateway;" parent="U78lYmPO1JMrWFxDWr0I-11" vertex="1">
          <mxGeometry x="40" y="35.5" width="78" height="78" as="geometry" />
        </mxCell>
        <mxCell id="U78lYmPO1JMrWFxDWr0I-2" value="API End Point" style="sketch=0;outlineConnect=0;fontColor=#232F3E;gradientColor=none;fillColor=#E7157B;strokeColor=none;dashed=0;verticalLabelPosition=bottom;verticalAlign=top;align=center;html=1;fontSize=12;fontStyle=0;aspect=fixed;pointerEvents=1;shape=mxgraph.aws4.endpoint;" vertex="1" parent="U78lYmPO1JMrWFxDWr0I-11">
          <mxGeometry x="40" y="181.5" width="78" height="78" as="geometry" />
        </mxCell>
        <mxCell id="U78lYmPO1JMrWFxDWr0I-13" value="" style="swimlane;startSize=0;" vertex="1" parent="U78lYmPO1JMrWFxDWr0I-10">
          <mxGeometry x="400" y="60" width="150" height="310" as="geometry" />
        </mxCell>
        <mxCell id="U78lYmPO1JMrWFxDWr0I-4" value="PageHits Table" style="sketch=0;outlineConnect=0;fontColor=#232F3E;gradientColor=none;fillColor=#C925D1;strokeColor=none;dashed=0;verticalLabelPosition=bottom;verticalAlign=top;align=center;html=1;fontSize=12;fontStyle=0;aspect=fixed;pointerEvents=1;shape=mxgraph.aws4.items;" vertex="1" parent="U78lYmPO1JMrWFxDWr0I-13">
          <mxGeometry x="37" y="181" width="78" height="78" as="geometry" />
        </mxCell>
        <mxCell id="JIqb_0SZRxBe-Qtd7qfQ-7" value="DynamoDB&amp;nbsp;" style="sketch=0;points=[[0,0,0],[0.25,0,0],[0.5,0,0],[0.75,0,0],[1,0,0],[0,1,0],[0.25,1,0],[0.5,1,0],[0.75,1,0],[1,1,0],[0,0.25,0],[0,0.5,0],[0,0.75,0],[1,0.25,0],[1,0.5,0],[1,0.75,0]];outlineConnect=0;fontColor=#232F3E;fillColor=#C925D1;strokeColor=#ffffff;dashed=0;verticalLabelPosition=bottom;verticalAlign=top;align=center;html=1;fontSize=12;fontStyle=0;aspect=fixed;shape=mxgraph.aws4.resourceIcon;resIcon=mxgraph.aws4.dynamodb;" parent="U78lYmPO1JMrWFxDWr0I-13" vertex="1">
          <mxGeometry x="36" y="35.5" width="78" height="78" as="geometry" />
        </mxCell>
        <mxCell id="U78lYmPO1JMrWFxDWr0I-12" value="" style="swimlane;startSize=0;" vertex="1" parent="U78lYmPO1JMrWFxDWr0I-10">
          <mxGeometry x="220" y="60" width="150" height="310" as="geometry" />
        </mxCell>
        <mxCell id="JIqb_0SZRxBe-Qtd7qfQ-5" value="Lambda" style="sketch=0;points=[[0,0,0],[0.25,0,0],[0.5,0,0],[0.75,0,0],[1,0,0],[0,1,0],[0.25,1,0],[0.5,1,0],[0.75,1,0],[1,1,0],[0,0.25,0],[0,0.5,0],[0,0.75,0],[1,0.25,0],[1,0.5,0],[1,0.75,0]];outlineConnect=0;fontColor=#232F3E;fillColor=#ED7100;strokeColor=#ffffff;dashed=0;verticalLabelPosition=bottom;verticalAlign=top;align=center;html=1;fontSize=12;fontStyle=0;aspect=fixed;shape=mxgraph.aws4.resourceIcon;resIcon=mxgraph.aws4.lambda;" parent="U78lYmPO1JMrWFxDWr0I-12" vertex="1">
          <mxGeometry x="40" y="40" width="68" height="68" as="geometry" />
        </mxCell>
        <mxCell id="U78lYmPO1JMrWFxDWr0I-3" value="Python Function" style="sketch=0;outlineConnect=0;fontColor=#232F3E;gradientColor=none;fillColor=#ED7100;strokeColor=none;dashed=0;verticalLabelPosition=bottom;verticalAlign=top;align=center;html=1;fontSize=12;fontStyle=0;aspect=fixed;pointerEvents=1;shape=mxgraph.aws4.lambda_function;" vertex="1" parent="U78lYmPO1JMrWFxDWr0I-12">
          <mxGeometry x="35" y="180" width="80" height="80" as="geometry" />
        </mxCell>
        <mxCell id="U78lYmPO1JMrWFxDWr0I-5" value="" style="edgeStyle=orthogonalEdgeStyle;html=1;endArrow=block;elbow=vertical;startArrow=block;startFill=1;endFill=1;strokeColor=#545B64;rounded=0;" edge="1" parent="U78lYmPO1JMrWFxDWr0I-10" source="U78lYmPO1JMrWFxDWr0I-2" target="U78lYmPO1JMrWFxDWr0I-3">
          <mxGeometry width="100" relative="1" as="geometry">
            <mxPoint x="160" y="300" as="sourcePoint" />
            <mxPoint x="260" y="300" as="targetPoint" />
          </mxGeometry>
        </mxCell>
        <mxCell id="U78lYmPO1JMrWFxDWr0I-21" value="" style="edgeStyle=orthogonalEdgeStyle;html=1;endArrow=block;elbow=vertical;startArrow=block;startFill=1;endFill=1;strokeColor=#545B64;rounded=0;" edge="1" parent="U78lYmPO1JMrWFxDWr0I-10" source="U78lYmPO1JMrWFxDWr0I-3" target="U78lYmPO1JMrWFxDWr0I-4">
          <mxGeometry width="100" relative="1" as="geometry">
            <mxPoint x="530" y="390" as="sourcePoint" />
            <mxPoint x="630" y="390" as="targetPoint" />
          </mxGeometry>
        </mxCell>
      </root>
    </mxGraphModel>
  </diagram>
  <diagram id="suXarpaiVlUxwduBNmiy" name="TeraformGitHub">
    <mxGraphModel dx="954" dy="647" grid="1" gridSize="10" guides="1" tooltips="1" connect="1" arrows="1" fold="1" page="1" pageScale="1" pageWidth="1100" pageHeight="850" math="0" shadow="0">
      <root>
        <mxCell id="0" />
        <mxCell id="1" parent="0" />
      </root>
    </mxGraphModel>
  </diagram>
</mxfile>
